<?xml version="1.0" encoding="UTF-8" ?>
<svg version="1.1" width="32" height="32" xmlns="http://www.w3.org/2000/svg" shape-rendering="crispEdges">
<rect x="14" y="0" width="8" height="1" fill="#000000" />
<rect x="12" y="1" width="2" height="1" fill="#000000" />
<rect x="14" y="1" width="8" height="4" fill="#FFFFFF" />
<rect x="22" y="1" width="2" height="1" fill="#000000" />
<rect x="11" y="2" width="1" height="1" fill="#000000" />
<rect x="12" y="2" width="2" height="4" fill="#FFFFFF" />
<rect x="22" y="2" width="2" height="26" fill="#FFFFFF" />
<rect x="24" y="2" width="1" height="1" fill="#000000" />
<rect x="1" y="3" width="1" height="4" fill="#919191" />
<rect x="2" y="3" width="1" height="5" fill="#727272" />
<rect x="10" y="3" width="1" height="1" fill="#000000" />
<rect x="11" y="3" width="1" height="3" fill="#FFFFFF" />
<rect x="24" y="3" width="1" height="13" fill="#FFFFFF" />
<rect x="25" y="3" width="1" height="2" fill="#000000" />
<rect x="3" y="4" width="1" height="6" fill="#727272" />
<rect x="9" y="4" width="1" height="3" fill="#000000" />
<rect x="10" y="4" width="1" height="2" fill="#FFFFFF" />
<rect x="4" y="5" width="1" height="6" fill="#727272" />
<rect x="14" y="5" width="3" height="5" fill="#FFFFFF" />
<rect x="17" y="5" width="1" height="1" fill="#FF0000" />
<rect x="18" y="5" width="1" height="2" fill="#A30000" />
<rect x="19" y="5" width="3" height="1" fill="#FFFFFF" />
<rect x="25" y="5" width="1" height="6" fill="#FFFFFF" />
<rect x="26" y="5" width="1" height="6" fill="#000000" />
<rect x="5" y="6" width="1" height="5" fill="#727272" />
<rect x="10" y="6" width="3" height="7" fill="#FF7200" />
<rect x="13" y="6" width="1" height="1" fill="#FFFFFF" />
<rect x="17" y="6" width="1" height="1" fill="#A30000" />
<rect x="19" y="6" width="1" height="1" fill="#F2E7E7" />
<rect x="20" y="6" width="2" height="21" fill="#FFFFFF" />
<rect x="1" y="7" width="1" height="1" fill="#FF0000" />
<rect x="6" y="7" width="1" height="2" fill="#727272" />
<rect x="8" y="7" width="1" height="1" fill="#000000" />
<rect x="9" y="7" width="1" height="7" fill="#FF7200" />
<rect x="13" y="7" width="1" height="5" fill="#FF7200" />
<rect x="17" y="7" width="2" height="1" fill="#F2E7E7" />
<rect x="19" y="7" width="1" height="25" fill="#FFFFFF" />
<rect x="2" y="8" width="1" height="1" fill="#A30000" />
<rect x="7" y="8" width="1" height="1" fill="#000000" />
<rect x="8" y="8" width="1" height="7" fill="#FF7200" />
<rect x="17" y="8" width="2" height="6" fill="#FFFFFF" />
<rect x="2" y="9" width="1" height="1" fill="#FF0000" />
<rect x="6" y="9" width="1" height="2" fill="#000000" />
<rect x="7" y="9" width="1" height="6" fill="#FF7200" />
<rect x="3" y="10" width="1" height="1" fill="#919191" />
<rect x="14" y="10" width="1" height="3" fill="#ED5500" />
<rect x="15" y="10" width="2" height="4" fill="#FFFFFF" />
<rect x="1" y="11" width="1" height="1" fill="#FF0000" />
<rect x="4" y="11" width="1" height="1" fill="#A30000" />
<rect x="5" y="11" width="1" height="5" fill="#000000" />
<rect x="6" y="11" width="1" height="5" fill="#FF7200" />
<rect x="25" y="11" width="1" height="5" fill="#000000" />
<rect x="1" y="12" width="1" height="1" fill="#A30000" />
<rect x="13" y="12" width="1" height="1" fill="#ED5500" />
<rect x="10" y="13" width="1" height="1" fill="#FF7200" />
<rect x="11" y="13" width="2" height="1" fill="#ED5500" />
<rect x="13" y="13" width="2" height="1" fill="#000000" />
<rect x="9" y="14" width="2" height="1" fill="#ED5500" />
<rect x="11" y="14" width="2" height="1" fill="#000000" />
<rect x="13" y="14" width="3" height="1" fill="#FFFFFF" />
<rect x="16" y="14" width="2" height="3" fill="#F2E7E7" />
<rect x="18" y="14" width="1" height="18" fill="#FFFFFF" />
<rect x="7" y="15" width="2" height="1" fill="#ED5500" />
<rect x="9" y="15" width="2" height="1" fill="#000000" />
<rect x="11" y="15" width="1" height="1" fill="#919191" />
<rect x="12" y="15" width="1" height="2" fill="#8D583B" />
<rect x="13" y="15" width="2" height="1" fill="#000000" />
<rect x="15" y="15" width="1" height="1" fill="#F2E7E7" />
<rect x="6" y="16" width="3" height="1" fill="#000000" />
<rect x="10" y="16" width="1" height="1" fill="#80543B" />
<rect x="11" y="16" width="1" height="1" fill="#8D583B" />
<rect x="13" y="16" width="1" height="1" fill="#8D583B" />
<rect x="15" y="16" width="1" height="2" fill="#000000" />
<rect x="24" y="16" width="1" height="7" fill="#000000" />
<rect x="11" y="17" width="3" height="1" fill="#80543B" />
<rect x="16" y="17" width="1" height="2" fill="#F2E7E7" />
<rect x="17" y="17" width="1" height="15" fill="#FFFFFF" />
<rect x="14" y="18" width="1" height="1" fill="#000000" />
<rect x="15" y="18" width="1" height="2" fill="#F2E7E7" />
<rect x="13" y="19" width="1" height="1" fill="#000000" />
<rect x="14" y="19" width="1" height="2" fill="#F2E7E7" />
<rect x="16" y="19" width="1" height="13" fill="#FFFFFF" />
<rect x="12" y="20" width="1" height="1" fill="#000000" />
<rect x="13" y="20" width="1" height="1" fill="#F2E7E7" />
<rect x="15" y="20" width="1" height="12" fill="#FFFFFF" />
<rect x="11" y="21" width="1" height="1" fill="#000000" />
<rect x="12" y="21" width="1" height="1" fill="#F2E7E7" />
<rect x="13" y="21" width="2" height="11" fill="#FFFFFF" />
<rect x="10" y="22" width="1" height="2" fill="#000000" />
<rect x="11" y="22" width="1" height="1" fill="#F2E7E7" />
<rect x="12" y="22" width="1" height="10" fill="#FFFFFF" />
<rect x="11" y="23" width="1" height="8" fill="#FFFFFF" />
<rect x="24" y="23" width="1" height="9" fill="#FFFFFF" />
<rect x="25" y="23" width="2" height="1" fill="#000000" />
<rect x="9" y="24" width="1" height="7" fill="#000000" />
<rect x="10" y="24" width="1" height="7" fill="#FFFFFF" />
<rect x="25" y="24" width="2" height="8" fill="#FFFFFF" />
<rect x="27" y="24" width="2" height="1" fill="#000000" />
<rect x="27" y="25" width="2" height="7" fill="#FFFFFF" />
<rect x="29" y="25" width="3" height="1" fill="#000000" />
<rect x="29" y="26" width="3" height="6" fill="#FFFFFF" />
<rect x="20" y="27" width="1" height="5" fill="#FFFFFF" />
<rect x="21" y="27" width="1" height="3" fill="#F2E7E7" />
<rect x="22" y="28" width="1" height="4" fill="#F2E7E7" />
<rect x="23" y="28" width="1" height="2" fill="#FFFFFF" />
<rect x="21" y="30" width="1" height="2" fill="#FFFFFF" />
<rect x="23" y="30" width="1" height="2" fill="#F2E7E7" />
<rect x="10" y="31" width="2" height="1" fill="#000000" />
</svg>